<?xml version="1.0" encoding="UTF-8"?>
<svg id="Layer_1" xmlns="http://www.w3.org/2000/svg" version="1.1" viewBox="0 0 720 720">
  <!-- Generator: Adobe Illustrator 30.3.0, SVG Export Plug-In . SVG Version: 2.1.3 Build 182)  -->
  <defs>
    <style>
      .st0 {
        fill: #1990d4;
      }

      .st1 {
        fill: #62c1ea;
      }

      .st2 {
        fill: #0e5f90;
      }
    </style>
  </defs>
  <path class="st1" d="M4.8,128.5h644.5c11.9,0,23.3,2.1,33.6,8,21.2,12.2,32.3,30.6,32.2,55.3-.1,9.2-2.8,17.9-7.1,26-10.5,19.9-21.7,39.3-33.1,58.7-29,49.4-58.1,98.8-87.1,148.3-10.1,17.3-20.2,34.5-29.7,52.1-.4.8-.6,1.9-1.6,2.3-.7-.1-.7-.7-.7-1.1-1-11.4-1.8-22.7-2.9-34.1-2.5-26.3-6.1-52.4-14.7-77.5-9.1-26.9-24.2-49.5-45.7-68.3-34.8-30.4-73.5-54.4-116.3-71.7-19.2-7.7-39-13.3-58.8-18.9-48.2-13.6-96.9-25.6-145.4-38.1-46.2-11.9-92.5-23.1-138.9-33.7-8.5-1.9-17-3.9-25.4-5.8-.9-.2-1.9-.1-2.9-1.5Z"/>
  <path class="st0" d="M500.9,569.8c-.5-8.2-1-15.9-1.3-23.5-.9-18.6-1.8-37.3-4.1-55.8-2.7-21.7-7.2-43-16.1-63.2-7.7-17.5-18.4-32.9-31.9-46.5-21.7-21.9-46.7-39.3-73.9-53.6-24.6-13-50.3-23.3-76.4-32.7-30-10.8-60.1-21.2-91-29.5-28.8-7.7-57.9-14.1-87.3-18.9-1.4-.2-2.8-.6-4.5-.9.8-1.1,1.7-.8,2.4-.9,21.1-.9,42.2-1.8,63.3-2.7,23.4-1,46.8-2.2,70.2-3.2,21.6-1,43.2-1.8,64.7-2.7,12.3-.5,24.5-1.2,36.8-1.8,2.3-.1,4.4.6,6.4,1.3,30.3,10.8,58.8,25.3,85.5,43.3,16,10.8,31.1,22.8,45.2,35.9,17.3,16,28.6,35.7,36,57.8,5,15.1,8.2,30.5,10.5,46.2,3,20.7,4.4,41.5,6.1,62.3.4,4.8.7,9.6,1.4,14.3.3,2.1-.1,3.8-1.1,5.5-9.4,16.1-18.7,32.3-28.1,48.4-3.5,6.1-7,12.1-10.6,18.1-.4.8-.7,1.8-2.2,2.8Z"/>
  <path class="st2" d="M450.3,653.8c-.1-3.4-.2-6.2-.2-8.9,0-17.1.2-34.1-.1-51.2-.3-19.7-1.9-39.2-7-58.3-6.4-23.9-18.1-45-33.9-63.9-19.1-22.8-42.4-40.4-68.1-55-17.8-10.2-36.3-19-55.2-27.1-25.8-11.1-51.4-22.6-77.1-34.1-.5-.2-1.2-.3-1.5-1.3,1-.2,1.9-.5,3-.6,13.6-1.6,27.3-3.2,40.9-4.8,15.5-1.9,30.9-3.9,46.4-5.8,17.3-2.1,34.6-3.8,51.8-6.4,6.4-.9,11.6.3,17.1,3.3,20.4,11,39.8,23.4,57.3,38.6,13.5,11.7,25.8,24.5,34.9,40.1,9.2,15.7,14.9,32.8,18.6,50.5,3.3,15.9,5.1,32,6.1,48.1,1,16.5,1.7,33.1,2.8,49.6.5,7.1.6,14.2,1.9,21.2.2,1.2-.1,2.2-.7,3.1-12,20.6-23.9,41.2-35.9,61.7,0,.3-.2.4-1.1,1.2Z"/>
</svg>